<?xml version="1.0" standalone="no"?>
<!DOCTYPE svg PUBLIC "-//W3C//DTD SVG 20010904//EN"
 "http://www.w3.org/TR/2001/REC-SVG-20010904/DTD/svg10.dtd">
<svg version="1.0" xmlns="http://www.w3.org/2000/svg"
 width="943.000000pt" height="943.000000pt" viewBox="0 0 943.000000 943.000000"
 preserveAspectRatio="xMidYMid meet">
<metadata>
Created by potrace 1.11, written by Peter Selinger 2001-2013
</metadata>
<g transform="translate(0.000000,943.000000) scale(0.100000,-0.100000)"
fill="#000000" stroke="none">
<path d="M4465 9410 c-183 -31 -411 -115 -550 -202 -267 -169 -468 -385 -652
-703 -74 -127 -85 -148 -211 -395 -69 -135 -176 -344 -239 -465 -152 -297
-946 -1883 -1060 -2120 -51 -104 -144 -297 -207 -429 -64 -131 -116 -239 -116
-241 0 -1 -45 -96 -100 -210 -55 -113 -100 -208 -100 -210 0 -1 -34 -74 -76
-161 -42 -88 -101 -213 -131 -279 -31 -66 -80 -171 -109 -234 -30 -62 -54
-115 -54 -117 0 -2 -15 -36 -34 -76 -19 -40 -54 -118 -79 -173 -25 -55 -61
-135 -81 -178 -20 -43 -36 -80 -36 -82 0 -2 -16 -39 -36 -82 -93 -201 -165
-396 -202 -553 -29 -120 -33 -139 -39 -190 -3 -25 -9 -65 -13 -90 -5 -25 -7
-137 -6 -250 3 -158 8 -231 25 -320 141 -750 674 -1346 1406 -1571 181 -55
323 -74 560 -74 183 0 254 5 360 25 28 5 66 12 85 15 220 36 581 178 815 322
11 7 27 16 35 20 26 13 224 146 238 160 7 7 23 18 35 25 33 17 209 160 330
267 59 53 191 181 294 285 l185 188 167 -168 c160 -163 224 -224 363 -347 66
-58 256 -210 298 -237 12 -8 28 -20 34 -25 15 -15 197 -133 271 -177 286 -169
629 -295 914 -334 25 -3 57 -8 71 -11 49 -10 416 -12 494 -2 502 60 1005 338
1309 724 178 225 314 483 372 705 28 105 39 153 59 260 9 47 18 96 21 110 8
40 19 189 19 255 -1 148 -23 316 -60 455 -35 130 -50 174 -116 335 -107 260
-157 372 -345 768 -56 120 -103 220 -103 222 0 1 -25 56 -55 120 -31 65 -64
136 -75 159 -17 38 -45 99 -140 301 -21 44 -63 134 -95 200 -32 66 -74 156
-95 200 -80 171 -179 376 -407 845 -116 237 -640 1290 -712 1430 -5 9 -61 119
-126 245 -65 127 -137 266 -160 310 -23 44 -111 215 -195 380 -210 412 -332
624 -419 727 -10 13 -47 57 -81 98 -218 261 -508 448 -815 525 -184 46 -446
57 -630 25z m406 -615 c275 -37 533 -206 705 -460 95 -140 117 -182 446 -820
123 -240 861 -1718 961 -1925 41 -85 115 -238 165 -340 49 -102 112 -232 140
-290 27 -58 85 -177 127 -265 74 -152 126 -263 200 -420 18 -38 63 -132 99
-208 36 -76 66 -140 66 -142 0 -1 33 -72 73 -156 66 -139 187 -400 240 -519
56 -127 163 -364 194 -429 104 -223 167 -415 188 -576 14 -104 17 -140 17
-230 1 -496 -234 -938 -639 -1202 -128 -84 -321 -168 -433 -189 -14 -3 -43 -9
-65 -14 -107 -24 -299 -31 -445 -16 -369 37 -784 235 -1187 567 -162 134 -416
378 -566 544 l-46 50 33 40 c18 22 48 60 67 85 19 25 37 47 40 50 13 11 211
284 291 400 354 519 596 1028 702 1480 24 103 31 136 42 215 3 22 7 45 9 52
13 40 22 313 15 453 -17 335 -172 683 -420 944 -66 69 -216 196 -243 205 -7 2
-25 14 -42 27 -40 30 -215 117 -290 144 -137 49 -265 80 -401 96 -114 14 -397
8 -489 -11 -265 -53 -483 -143 -666 -272 -119 -85 -204 -164 -314 -289 -146
-166 -294 -504 -321 -732 -3 -31 -8 -66 -11 -77 -11 -52 -10 -321 2 -420 48
-401 220 -891 470 -1336 42 -75 169 -285 235 -389 50 -79 270 -392 317 -450
121 -151 171 -225 163 -239 -13 -25 -385 -399 -469 -472 -41 -35 -79 -69 -85
-74 -81 -75 -282 -218 -436 -311 -383 -232 -722 -322 -1095 -291 -88 7 -101 9
-221 37 -339 79 -651 305 -846 611 -77 120 -165 335 -182 443 -4 21 -8 41 -10
45 -17 27 -27 319 -14 414 4 34 10 79 13 99 19 152 125 437 305 823 116 246
185 396 210 450 157 340 436 928 637 1345 52 107 133 276 181 375 117 242 824
1657 960 1920 251 486 393 760 487 940 245 468 521 681 930 718 45 4 146 0
206 -8z m89 -3445 c115 -27 110 -26 155 -45 238 -105 379 -235 488 -450 74
-148 108 -323 102 -530 -4 -138 -16 -229 -51 -370 -90 -363 -288 -775 -587
-1225 -94 -141 -258 -370 -290 -405 -10 -11 -27 -35 -39 -53 -11 -17 -24 -30
-29 -26 -23 14 -219 281 -352 479 -81 120 -119 181 -184 290 -83 139 -189 345
-242 470 -23 55 -47 109 -52 120 -43 93 -113 341 -144 515 -32 175 -21 426 25
582 105 355 416 612 807 667 97 13 299 4 393 -19z"/>
</g>
</svg>
